<svg id="Layer_1" data-name="Layer 1" xmlns="https://www.w3.org/2000/svg" viewBox="0 0 120.43 105.27"><defs><style>.cls-1{fill:#1d3058;}.cls-2{fill:#fff;}.cls-3{fill:#d1e5c3;}.cls-4{fill:#706f6f;}</style></defs><title>Logo Vectorised</title><rect class="cls-1" x="0.78" width="118.86" height="90.09"/><path class="cls-2" d="M32.07,65.72a13.59,13.59,0,0,0,1.41,3.52,10,10,0,0,0,3.46,3.27,10.33,10.33,0,0,0,5.21,1.23,9.68,9.68,0,0,0,6.71-2.19,6.78,6.78,0,0,0,2.44-5.19,6,6,0,0,0-2.2-4.65q-1.7-1.44-6.83-2.91-6.92-2-9.88-4.62a8.26,8.26,0,0,1-2.95-6.45,9.57,9.57,0,0,1,3.29-7.26,12.27,12.27,0,0,1,8.66-3,15.82,15.82,0,0,1,6.14,1.21,12.28,12.28,0,0,1,4.83,3.62,12.44,12.44,0,0,1,2.12,4.35l-3.87,1.18a9.67,9.67,0,0,0-3.39-5.23,9.36,9.36,0,0,0-5.78-1.82,8.29,8.29,0,0,0-5.74,2,6,6,0,0,0-2.17,4.59,5.45,5.45,0,0,0,1.77,3.94C36.46,52.39,39,53.55,43,54.69q7,2,9.72,4.68a9.2,9.2,0,0,1,2.66,6.75A10.17,10.17,0,0,1,51.75,74q-3.61,3.25-9.6,3.25a15.69,15.69,0,0,1-6.85-1.48,13.15,13.15,0,0,1-5-4.1,14.14,14.14,0,0,1-2.18-4.85Z" transform="translate(-17.97 -14.25)"/><polygon class="cls-2" points="43.03 23.9 49.3 23.9 60.48 54.76 71.6 23.9 77.85 23.9 77.85 62.21 74.19 62.21 74.19 27.36 61.54 62.21 59.34 62.21 46.74 27.36 46.74 62.21 43.03 62.21 43.03 23.9"/><polygon class="cls-2" points="85.7 23.9 108.26 23.9 108.26 27.54 89.41 27.54 89.41 40.05 103.44 40.05 103.44 43.74 89.41 43.74 89.41 58.52 110.08 58.52 110.08 62.21 85.7 62.21 85.7 23.9"/><path class="cls-3" d="M28.68,93.5a2,2,0,0,0,.45.46,2.12,2.12,0,0,0,.63.34,2.3,2.3,0,0,0,.81.13,2.14,2.14,0,0,0,.82-.15,1.79,1.79,0,0,0,1-1.07,2.3,2.3,0,0,0,.14-.79,1.44,1.44,0,0,0-.33-1,2.59,2.59,0,0,0-.81-.63,9,9,0,0,0-1-.46,5.4,5.4,0,0,1-1.05-.52,2.77,2.77,0,0,1-.81-.79,2.31,2.31,0,0,1-.32-1.31,2.82,2.82,0,0,1,.2-1.06,2.32,2.32,0,0,1,.61-.82,2.79,2.79,0,0,1,.94-.54,3.77,3.77,0,0,1,1.25-.19,3.55,3.55,0,0,1,1.15.16,2.83,2.83,0,0,1,.9.49,3.75,3.75,0,0,0-.21.5,6.45,6.45,0,0,0-.16.66H32.7a3.53,3.53,0,0,0-.18-.42,1.8,1.8,0,0,0-.32-.42,2,2,0,0,0-.48-.33,1.54,1.54,0,0,0-.67-.13,2.08,2.08,0,0,0-.71.12,1.85,1.85,0,0,0-.57.36,1.45,1.45,0,0,0-.37.54,1.82,1.82,0,0,0-.13.7,1.49,1.49,0,0,0,.32,1,2.84,2.84,0,0,0,.81.63,7.73,7.73,0,0,0,1.05.46,5.84,5.84,0,0,1,1,.49,2.81,2.81,0,0,1,.82.75,2.1,2.1,0,0,1,.32,1.22,3.2,3.2,0,0,1-.23,1.2,2.78,2.78,0,0,1-.66,1,3,3,0,0,1-1.07.66,4.25,4.25,0,0,1-1.43.23,3.65,3.65,0,0,1-1.4-.23,4.35,4.35,0,0,1-.89-.52,3.31,3.31,0,0,0,.17-.58,6.24,6.24,0,0,0,.09-.66h.17a2.26,2.26,0,0,0,.3.51" transform="translate(-17.97 -14.25)"/><path class="cls-3" d="M46.33,88.07a3.85,3.85,0,0,0-.8-1.39,3.38,3.38,0,0,0-1.23-.81,4.35,4.35,0,0,0-1.51-.26,4.3,4.3,0,0,0-1.5.26,3.26,3.26,0,0,0-1.22.81,3.73,3.73,0,0,0-.81,1.39,5.92,5.92,0,0,0-.29,2,5.86,5.86,0,0,0,.29,2,3.65,3.65,0,0,0,.81,1.39,3.15,3.15,0,0,0,1.22.81,4.08,4.08,0,0,0,1.5.27,4.13,4.13,0,0,0,1.51-.27,3.26,3.26,0,0,0,1.23-.81,3.77,3.77,0,0,0,.8-1.39,5.85,5.85,0,0,0,.3-2,5.91,5.91,0,0,0-.3-2M38,88a4.32,4.32,0,0,1,1.06-1.56,4.53,4.53,0,0,1,1.65-1,6.82,6.82,0,0,1,4.19,0,4.53,4.53,0,0,1,1.65,1A4.32,4.32,0,0,1,47.6,88a5.32,5.32,0,0,1,.38,2.1,5.38,5.38,0,0,1-.38,2.1,4.37,4.37,0,0,1-1.06,1.55,4.23,4.23,0,0,1-1.65,1,7,7,0,0,1-4.19,0,4.23,4.23,0,0,1-1.65-1A4.37,4.37,0,0,1,38,92.16a5.38,5.38,0,0,1-.38-2.1A5.32,5.32,0,0,1,38,88" transform="translate(-17.97 -14.25)"/><path class="cls-3" d="M52.66,87.07c0-.59,0-1.18-.08-1.79l.35,0a1.84,1.84,0,0,0,.33,0l.34,0,.34,0c0,.61,0,1.2-.08,1.79s0,1.19,0,1.79c0,1.17,0,2.18,0,3s0,1.62,0,2.3q1,0,1.89,0A17.5,17.5,0,0,0,57.7,94a1.4,1.4,0,0,0-.07.41,1.23,1.23,0,0,0,.07.38c-.43,0-.85,0-1.28,0H53.86l-1.28,0c0-.58.06-1.16.08-1.75s0-1.19,0-1.8V88.86c0-.6,0-1.2,0-1.79" transform="translate(-17.97 -14.25)"/><path class="cls-3" d="M62.36,87.07c0-.59,0-1.18-.08-1.79l.35,0a1.83,1.83,0,0,0,.66,0l.35,0c0,.61,0,1.2-.08,1.79s0,1.19,0,1.79v2.39q0,.91,0,1.8c0,.59,0,1.17.08,1.75-.21,0-.44,0-.68,0s-.46,0-.68,0c0-.58.06-1.16.08-1.75s0-1.19,0-1.8V88.86c0-.6,0-1.2,0-1.79" transform="translate(-17.97 -14.25)"/><path class="cls-3" d="M75.78,94.47a3.43,3.43,0,0,1-.65.24,7.85,7.85,0,0,1-.85.18,5.18,5.18,0,0,1-1,.09,6.31,6.31,0,0,1-2-.32,4.18,4.18,0,0,1-1.6-1,4.48,4.48,0,0,1-1-1.55,5.57,5.57,0,0,1-.38-2.1,5.5,5.5,0,0,1,.38-2.1,4.22,4.22,0,0,1,1.07-1.56,4.49,4.49,0,0,1,1.64-1,6.44,6.44,0,0,1,2.11-.33,7.25,7.25,0,0,1,1.67.18,9,9,0,0,1,1.33.45,2.17,2.17,0,0,0-.18.53c0,.22-.08.41-.11.55l-.08,0a2.86,2.86,0,0,0-.39-.37,4.52,4.52,0,0,0-.58-.4,3.69,3.69,0,0,0-.75-.33,2.94,2.94,0,0,0-.91-.13,4.41,4.41,0,0,0-1.52.26,3.26,3.26,0,0,0-1.22.81,3.73,3.73,0,0,0-.81,1.39,5.92,5.92,0,0,0-.29,2,5.86,5.86,0,0,0,.29,2,3.65,3.65,0,0,0,.81,1.39,3,3,0,0,0,1.22.81,4.19,4.19,0,0,0,1.52.27,3.35,3.35,0,0,0,.92-.13,4.11,4.11,0,0,0,.77-.3,4.31,4.31,0,0,0,.64-.37l.48-.35,0,0-.12.82a2.07,2.07,0,0,1-.4.24" transform="translate(-17.97 -14.25)"/><path class="cls-3" d="M81,87.07c0-.59,0-1.18-.07-1.79l.34,0,.34,0a1.84,1.84,0,0,0,.33,0l.35,0c0,.61-.06,1.2-.08,1.79s0,1.19,0,1.79v2.39q0,.91,0,1.8c0,.59,0,1.17.08,1.75-.22,0-.44,0-.68,0s-.47,0-.68,0c0-.58,0-1.16.07-1.75s0-1.19,0-1.8V88.86c0-.6,0-1.2,0-1.79" transform="translate(-17.97 -14.25)"/><path class="cls-3" d="M89.53,86h-.75L88,86l-.76,0-.66.07a1.53,1.53,0,0,0,.07-.44,1.64,1.64,0,0,0-.07-.43l1.79,0c.58,0,1.17,0,1.78,0s1.21,0,1.79,0l1.79,0a1.7,1.7,0,0,0-.07.44,1.52,1.52,0,0,0,.07.43l-.66-.07-.76,0-.79,0h-.75c0,1-.05,1.9-.05,2.86v2.39c0,.61,0,1.21,0,1.8s0,1.17.07,1.75c-.21,0-.43,0-.68,0s-.46,0-.67,0c0-.58,0-1.16.07-1.75s0-1.19,0-1.8V88.86c0-1,0-1.91,0-2.86" transform="translate(-17.97 -14.25)"/><path class="cls-3" d="M105.57,88.07a4,4,0,0,0-.81-1.39,3.43,3.43,0,0,0-1.22-.81,4.45,4.45,0,0,0-1.52-.26,4.3,4.3,0,0,0-1.5.26,3.38,3.38,0,0,0-1.23.81,4,4,0,0,0-.81,1.39,6.2,6.2,0,0,0-.28,2,6.14,6.14,0,0,0,.28,2,3.93,3.93,0,0,0,.81,1.39,3.26,3.26,0,0,0,1.23.81,4.08,4.08,0,0,0,1.5.27,4.23,4.23,0,0,0,1.52-.27,3.3,3.3,0,0,0,1.22-.81,3.93,3.93,0,0,0,.81-1.39,6.12,6.12,0,0,0,.29-2,6.19,6.19,0,0,0-.29-2M97.22,88a4.32,4.32,0,0,1,1.06-1.56,4.53,4.53,0,0,1,1.65-1A6.32,6.32,0,0,1,102,85.1a6.48,6.48,0,0,1,2.11.33,4.58,4.58,0,0,1,1.64,1A4.32,4.32,0,0,1,106.83,88a5.32,5.32,0,0,1,.38,2.1,5.38,5.38,0,0,1-.38,2.1,4.37,4.37,0,0,1-1.06,1.55,4.27,4.27,0,0,1-1.64,1A6.76,6.76,0,0,1,102,95a6.59,6.59,0,0,1-2.09-.32,4.23,4.23,0,0,1-1.65-1,4.37,4.37,0,0,1-1.06-1.55,5.38,5.38,0,0,1-.38-2.1,5.32,5.32,0,0,1,.38-2.1" transform="translate(-17.97 -14.25)"/><path class="cls-3" d="M113.48,89.71H114a4.63,4.63,0,0,0,.89-.09,2.81,2.81,0,0,0,.86-.34,2.09,2.09,0,0,0,.64-.65,2,2,0,0,0,.26-1,1.83,1.83,0,0,0-.2-.89,1.65,1.65,0,0,0-.52-.56,2,2,0,0,0-.7-.28,3.71,3.71,0,0,0-.73-.08l-.8,0c-.22,0-.4,0-.54,0l-.06,1.51c0,.5,0,1,0,1.49v.79a2.65,2.65,0,0,0,.42.06m-1.59-2.64c0-.59,0-1.18-.07-1.79l.78,0c.26,0,.53,0,.8,0s.53,0,.78,0,.53,0,.79,0a5,5,0,0,1,1.11.11,2.44,2.44,0,0,1,.92.37,1.84,1.84,0,0,1,.63.67,2.16,2.16,0,0,1,.23,1,2.11,2.11,0,0,1-.3,1.14,2.77,2.77,0,0,1-.73.79,3.37,3.37,0,0,1-.92.48,4,4,0,0,1-.9.23c.12.14.27.33.46.58l.65.83.75.94.75.94.68.83q.32.38.51.57a2.86,2.86,0,0,0-.42,0h-.81a2.6,2.6,0,0,0-.4,0l-.63-.88-.94-1.24c-.34-.45-.69-.89-1-1.33s-.68-.81-1-1.11h-.53v1c0,.61,0,1.21,0,1.8s.05,1.17.07,1.75c-.21,0-.44,0-.68,0s-.46,0-.67,0c0-.58.05-1.16.07-1.75s0-1.19,0-1.8V88.86c0-.6,0-1.2,0-1.79" transform="translate(-17.97 -14.25)"/><path class="cls-3" d="M123.16,93.5a2,2,0,0,0,.45.46,2.12,2.12,0,0,0,.63.34,2.3,2.3,0,0,0,.81.13,2.14,2.14,0,0,0,.82-.15,1.86,1.86,0,0,0,.62-.43,1.92,1.92,0,0,0,.4-.64,2.3,2.3,0,0,0,.14-.79,1.44,1.44,0,0,0-.33-1,2.84,2.84,0,0,0-.81-.63,8.5,8.5,0,0,0-1-.46,5.32,5.32,0,0,1-1-.52A2.65,2.65,0,0,1,123,89a2.31,2.31,0,0,1-.33-1.31,2.64,2.64,0,0,1,.21-1.06,2.42,2.42,0,0,1,.6-.82,2.94,2.94,0,0,1,1-.54,3.77,3.77,0,0,1,1.25-.19,3.59,3.59,0,0,1,1.15.16,2.83,2.83,0,0,1,.9.49,3.75,3.75,0,0,0-.21.5c-.05.17-.11.39-.17.66h-.16a3.7,3.7,0,0,0-.19-.42,1.56,1.56,0,0,0-.32-.42,1.8,1.8,0,0,0-.47-.33,1.54,1.54,0,0,0-.67-.13,2,2,0,0,0-.71.12,1.85,1.85,0,0,0-.57.36,1.6,1.6,0,0,0-.38.54,2,2,0,0,0-.13.7,1.49,1.49,0,0,0,.33,1,2.84,2.84,0,0,0,.81.63,7.22,7.22,0,0,0,1.05.46,5.84,5.84,0,0,1,1,.49,2.77,2.77,0,0,1,.81.75,2,2,0,0,1,.33,1.22,3.2,3.2,0,0,1-.23,1.2,2.8,2.8,0,0,1-.67,1,2.93,2.93,0,0,1-1.06.66,4.26,4.26,0,0,1-1.44.23,3.63,3.63,0,0,1-1.39-.23,4.35,4.35,0,0,1-.89-.52,3.31,3.31,0,0,0,.17-.58q0-.25.09-.66h.17a2.26,2.26,0,0,0,.3.51" transform="translate(-17.97 -14.25)"/><path class="cls-4" d="M18.66,117.52a2.62,2.62,0,0,0,.25.61,1.64,1.64,0,0,0,.6.57,1.83,1.83,0,0,0,.91.21,1.64,1.64,0,0,0,1.16-.38,1.14,1.14,0,0,0,.43-.9,1,1,0,0,0-.39-.81,3.38,3.38,0,0,0-1.18-.5,4.59,4.59,0,0,1-1.72-.81,1.43,1.43,0,0,1-.51-1.12,1.65,1.65,0,0,1,.57-1.26,2.11,2.11,0,0,1,1.51-.53,2.71,2.71,0,0,1,1.06.21,2,2,0,0,1,1.21,1.38l-.67.21a1.69,1.69,0,0,0-.59-.91,1.62,1.62,0,0,0-1-.32,1.45,1.45,0,0,0-1,.34,1,1,0,0,0-.38.8,1,1,0,0,0,.31.69,3.38,3.38,0,0,0,1.33.6,4.19,4.19,0,0,1,1.69.81,1.62,1.62,0,0,1,.46,1.18,1.74,1.74,0,0,1-.62,1.36,2.4,2.4,0,0,1-1.67.57,2.73,2.73,0,0,1-1.19-.26,2.29,2.29,0,0,1-.88-.71,2.49,2.49,0,0,1-.38-.85Z" transform="translate(-17.97 -14.25)"/><path class="cls-4" d="M24,112.94h.64v1.72h1.17v.59H24.62v2.93a.77.77,0,0,0,.19.57.67.67,0,0,0,.52.21,2.46,2.46,0,0,0,.46-.07v.57a4,4,0,0,1-.55,0,1.37,1.37,0,0,1-1-.28,1.25,1.25,0,0,1-.29-.92v-3h-.82v-.59H24Z" transform="translate(-17.97 -14.25)"/><path class="cls-4" d="M29.55,118.23v-1.51c-.71.17-1.18.3-1.41.38a1.8,1.8,0,0,0-.79.47,1,1,0,0,0-.25.63.65.65,0,0,0,.22.51.78.78,0,0,0,.58.21,1.94,1.94,0,0,0,.76-.18,4.42,4.42,0,0,0,.89-.51m-3.05-2.75a3,3,0,0,1,1-.69,2.62,2.62,0,0,1,1-.22,1.77,1.77,0,0,1,1,.26,1.4,1.4,0,0,1,.57.64,2.13,2.13,0,0,1,.12.78v2a4.6,4.6,0,0,0,.13,1.13h-.65a3.34,3.34,0,0,1-.13-.79,3.25,3.25,0,0,1-.89.66,2.11,2.11,0,0,1-.93.22,1.36,1.36,0,0,1-1-.36,1.23,1.23,0,0,1-.36-.91,1.39,1.39,0,0,1,.28-.84,1.89,1.89,0,0,1,.89-.62c.29-.1,1-.27,2-.5V116a.82.82,0,0,0-.26-.62.91.91,0,0,0-.66-.25,1.77,1.77,0,0,0-.75.17,4.46,4.46,0,0,0-.91.62Z" transform="translate(-17.97 -14.25)"/><rect class="cls-4" x="13.54" y="98.47" width="0.64" height="6.66"/><rect class="cls-4" x="15.58" y="98.47" width="0.64" height="6.66"/><path class="cls-4" d="M38.4,118.23v-1.51c-.72.17-1.18.3-1.41.38a1.74,1.74,0,0,0-.79.47,1,1,0,0,0-.26.63.69.69,0,0,0,.22.51.81.81,0,0,0,.58.21,1.9,1.9,0,0,0,.76-.18,4.21,4.21,0,0,0,.9-.51m-3-2.75a2.92,2.92,0,0,1,1-.69,2.58,2.58,0,0,1,1-.22,1.74,1.74,0,0,1,1,.26,1.29,1.29,0,0,1,.57.64,2.13,2.13,0,0,1,.12.78v2a4.6,4.6,0,0,0,.14,1.13h-.66a2.86,2.86,0,0,1-.12-.79,3.44,3.44,0,0,1-.9.66,2,2,0,0,1-.93.22,1.34,1.34,0,0,1-1-.36,1.24,1.24,0,0,1-.37-.91,1.4,1.4,0,0,1,.29-.84,1.84,1.84,0,0,1,.89-.62c.29-.1,1-.27,2-.5V116a.8.8,0,0,0-.27-.62.89.89,0,0,0-.66-.25,1.77,1.77,0,0,0-.75.17,4.43,4.43,0,0,0-.9.62Z" transform="translate(-17.97 -14.25)"/><path class="cls-4" d="M41,115.73a3.12,3.12,0,0,1,.82-.89,1.85,1.85,0,0,1,1-.28h.18l-.09.7h-.24a1.27,1.27,0,0,0-.57.12,1.43,1.43,0,0,0-.56.43,1.91,1.91,0,0,0-.39.72,2.28,2.28,0,0,0-.14.76v2.1h-.64v-4.73H41Z" transform="translate(-17.97 -14.25)"/><path class="cls-4" d="M46.8,115.85a3.13,3.13,0,0,0-.77-.53,1.94,1.94,0,0,0-.76-.17,1.24,1.24,0,0,0-1,.47,2.1,2.1,0,0,0-.4,1.38,2.19,2.19,0,0,0,.41,1.44,1.27,1.27,0,0,0,1,.48,1.71,1.71,0,0,0,.74-.18,3.27,3.27,0,0,0,.78-.53Zm0-3.12h.64v5.19a8.19,8.19,0,0,0,.05.83,5,5,0,0,0,.12.64H47a2.92,2.92,0,0,1-.11-.66,3.15,3.15,0,0,1-.84.56,1.89,1.89,0,0,1-.82.19,1.77,1.77,0,0,1-1.37-.64,3.11,3.11,0,0,1,0-3.62,1.78,1.78,0,0,1,1.38-.65,2.05,2.05,0,0,1,.8.17,3.52,3.52,0,0,1,.81.55Z" transform="translate(-17.97 -14.25)"/><polygon class="cls-4" points="33.41 98.47 34.5 98.47 36.45 103.84 38.38 98.47 39.47 98.47 39.47 105.14 38.83 105.14 38.83 99.08 36.63 105.14 36.25 105.14 34.06 99.08 34.06 105.14 33.41 105.14 33.41 98.47"/><path class="cls-4" d="M61.68,118.23v-1.51c-.71.17-1.18.3-1.41.38a1.74,1.74,0,0,0-.79.47,1,1,0,0,0-.25.63.68.68,0,0,0,.21.51.81.81,0,0,0,.58.21,1.87,1.87,0,0,0,.76-.18,4.21,4.21,0,0,0,.9-.51m-3-2.75a3,3,0,0,1,1-.69,2.58,2.58,0,0,1,1-.22,1.74,1.74,0,0,1,1,.26,1.29,1.29,0,0,1,.57.64,2.13,2.13,0,0,1,.12.78v2a4.6,4.6,0,0,0,.14,1.13H61.8a2.86,2.86,0,0,1-.12-.79,3.29,3.29,0,0,1-.9.66,2,2,0,0,1-.93.22,1.34,1.34,0,0,1-1-.36,1.24,1.24,0,0,1-.37-.91,1.4,1.4,0,0,1,.29-.84,1.86,1.86,0,0,1,.88-.62c.3-.1,1-.27,2-.5V116a.8.8,0,0,0-.27-.62.89.89,0,0,0-.66-.25,1.69,1.69,0,0,0-.74.17,4,4,0,0,0-.91.62Z" transform="translate(-17.97 -14.25)"/><path class="cls-4" d="M64.23,115.73a3.12,3.12,0,0,1,.82-.89,1.85,1.85,0,0,1,1-.28h.18l-.09.7h-.24a1.27,1.27,0,0,0-.57.12,1.43,1.43,0,0,0-.56.43,1.91,1.91,0,0,0-.39.72,2.28,2.28,0,0,0-.14.76v2.1h-.64v-4.73h.64Z" transform="translate(-17.97 -14.25)"/><path class="cls-4" d="M70.41,118.24a2.5,2.5,0,0,1-.7.86,1.84,1.84,0,0,1-1.15.39,2,2,0,0,1-1-.3,2,2,0,0,1-.76-.87,3.14,3.14,0,0,1-.26-1.3,2.57,2.57,0,0,1,.6-1.79,1.92,1.92,0,0,1,1.46-.66,1.89,1.89,0,0,1,1,.3,2.39,2.39,0,0,1,.8.91l-.55.3a2.58,2.58,0,0,0-.58-.74,1.16,1.16,0,0,0-.72-.24,1.28,1.28,0,0,0-1,.49,2.28,2.28,0,0,0-.42,1.47,2.05,2.05,0,0,0,.43,1.36,1.23,1.23,0,0,0,1,.5,1.47,1.47,0,0,0,1.32-1Z" transform="translate(-17.97 -14.25)"/><path class="cls-4" d="M71.3,112.73H72v2.46a8,8,0,0,1,1.15-.52,2.27,2.27,0,0,1,.67-.1,1.21,1.21,0,0,1,.93.39,1.72,1.72,0,0,1,.37,1.18v3.25h-.65V116a.87.87,0,0,0-.21-.63.81.81,0,0,0-.6-.21,2.51,2.51,0,0,0-.76.14,5.18,5.18,0,0,0-.9.43v3.66H71.3Z" transform="translate(-17.97 -14.25)"/><path class="cls-4" d="M80.53,115.19l.21-.14a2.8,2.8,0,0,0,.72-.64,1.07,1.07,0,0,0,.19-.56.59.59,0,0,0-.21-.44.65.65,0,0,0-.47-.2.77.77,0,0,0-.57.27,1,1,0,0,0-.25.68,1.23,1.23,0,0,0,.07.42,5,5,0,0,0,.31.61m-.22,1c-.38.24-.64.41-.76.5a1.6,1.6,0,0,0-.38.45,1.14,1.14,0,0,0-.13.51,1.15,1.15,0,0,0,.46.87,1.67,1.67,0,0,0,1.16.4,1.91,1.91,0,0,0,.68-.12,3.68,3.68,0,0,0,.72-.45,15.07,15.07,0,0,1-1.75-2.16m-.38-.6a4,4,0,0,1-.35-.68,2.36,2.36,0,0,1-.12-.72,1.52,1.52,0,0,1,.42-1.12A1.57,1.57,0,0,1,82,113a1.27,1.27,0,0,1,.39,1,1.45,1.45,0,0,1-.1.51,1.84,1.84,0,0,1-.31.5,3.46,3.46,0,0,1-.48.46l-.56.39.16.23a15.53,15.53,0,0,0,1.44,1.75,3.44,3.44,0,0,0,.43-.81,4.16,4.16,0,0,0,.24-.88h.71a6.65,6.65,0,0,1-.55,1.72,3.94,3.94,0,0,1-.29.46,1.91,1.91,0,0,0,1.14.52v.71a2,2,0,0,1-.78-.18,3.72,3.72,0,0,1-.82-.52,2.46,2.46,0,0,1-.8.52,2.9,2.9,0,0,1-1.16.21,2.29,2.29,0,0,1-1.81-.72,1.75,1.75,0,0,1-.48-1.21,1.71,1.71,0,0,1,.38-1.08,3.81,3.81,0,0,1,1.21-1" transform="translate(-17.97 -14.25)"/><polygon class="cls-4" points="69.63 98.47 73.56 98.47 73.56 99.11 70.28 99.11 70.28 101.28 72.72 101.28 72.72 101.92 70.28 101.92 70.28 104.49 73.87 104.49 73.87 105.14 69.63 105.14 69.63 98.47"/><path class="cls-4" d="M95.92,115.85a3.37,3.37,0,0,0-.78-.53,1.86,1.86,0,0,0-.75-.17,1.23,1.23,0,0,0-1,.47A2,2,0,0,0,93,117a2.19,2.19,0,0,0,.4,1.44,1.28,1.28,0,0,0,1,.48,1.79,1.79,0,0,0,.75-.18,3.72,3.72,0,0,0,.78-.53Zm0-3.12h.63v5.19a6.12,6.12,0,0,0,.06.83,2.92,2.92,0,0,0,.12.64h-.66a2.45,2.45,0,0,1-.11-.66,3.5,3.5,0,0,1-.84.56,1.93,1.93,0,0,1-.83.19,1.78,1.78,0,0,1-1.37-.64,3.14,3.14,0,0,1,0-3.62,1.75,1.75,0,0,1,1.37-.65,2,2,0,0,1,.8.17,3.56,3.56,0,0,1,.82.55Z" transform="translate(-17.97 -14.25)"/><polygon class="cls-4" points="79.36 100.41 79.98 100.41 81.07 103.85 82.16 100.41 82.66 100.41 83.77 103.94 84.87 100.41 85.49 100.41 83.98 105.14 83.53 105.14 82.41 101.55 81.28 105.14 80.85 105.14 79.36 100.41"/><path class="cls-4" d="M107,118.23v-1.51c-.71.17-1.18.3-1.4.38a1.84,1.84,0,0,0-.8.47,1,1,0,0,0-.25.63.65.65,0,0,0,.22.51.79.79,0,0,0,.58.21,1.9,1.9,0,0,0,.76-.18,4.16,4.16,0,0,0,.89-.51M104,115.48a3.14,3.14,0,0,1,1-.69,2.66,2.66,0,0,1,1-.22,1.74,1.74,0,0,1,1,.26,1.29,1.29,0,0,1,.57.64,2.13,2.13,0,0,1,.12.78v2a4.17,4.17,0,0,0,.14,1.13h-.66a3.34,3.34,0,0,1-.13-.79,3.25,3.25,0,0,1-.89.66,2,2,0,0,1-.93.22,1.34,1.34,0,0,1-1-.36,1.2,1.2,0,0,1-.37-.91,1.34,1.34,0,0,1,.29-.84,1.86,1.86,0,0,1,.88-.62c.3-.1,1-.27,2-.5V116a.79.79,0,0,0-.26-.62.89.89,0,0,0-.66-.25,1.77,1.77,0,0,0-.75.17,4.17,4.17,0,0,0-.9.62Z" transform="translate(-17.97 -14.25)"/><path class="cls-4" d="M109.59,115.73a3.13,3.13,0,0,1,.83-.89,1.85,1.85,0,0,1,1-.28h.18l-.1.7h-.23a1.27,1.27,0,0,0-.57.12,1.54,1.54,0,0,0-.57.43,2.24,2.24,0,0,0-.39.72,2.56,2.56,0,0,0-.14.76v2.1H109v-4.73h.64Z" transform="translate(-17.97 -14.25)"/><path class="cls-4" d="M115.45,115.85a3,3,0,0,0-.78-.53,1.86,1.86,0,0,0-.75-.17,1.24,1.24,0,0,0-1,.47,2,2,0,0,0-.4,1.38,2.19,2.19,0,0,0,.41,1.44,1.25,1.25,0,0,0,1,.48,1.75,1.75,0,0,0,.74-.18,3.72,3.72,0,0,0,.78-.53Zm0-3.12h.64v5.19a8.19,8.19,0,0,0,0,.83,5,5,0,0,0,.12.64h-.66a2.45,2.45,0,0,1-.11-.66,3.15,3.15,0,0,1-.84.56,1.92,1.92,0,0,1-.82.19,1.77,1.77,0,0,1-1.37-.64,3.11,3.11,0,0,1,0-3.62,1.78,1.78,0,0,1,1.38-.65,2,2,0,0,1,.79.17,3.56,3.56,0,0,1,.82.55Z" transform="translate(-17.97 -14.25)"/><path class="cls-4" d="M117.48,116.65a1.15,1.15,0,0,1-.35-.81,1.18,1.18,0,0,1,.43-.9,1.73,1.73,0,0,1,1.19-.37,2.55,2.55,0,0,1,1,.18,2,2,0,0,1,.77.54l-.49.42a1.78,1.78,0,0,0-.56-.46,1.43,1.43,0,0,0-.66-.15,1.16,1.16,0,0,0-.73.2.61.61,0,0,0-.25.48.55.55,0,0,0,.19.42,2.26,2.26,0,0,0,.89.37,3.1,3.1,0,0,1,1.45.67,1.24,1.24,0,0,1,.37.87,1.28,1.28,0,0,1-.44,1,1.74,1.74,0,0,1-1.22.4,2.5,2.5,0,0,1-1-.21,3.77,3.77,0,0,1-1-.7l.56-.39a2.54,2.54,0,0,0,.74.57,1.66,1.66,0,0,0,.73.17,1.1,1.1,0,0,0,.76-.24.7.7,0,0,0,.27-.55.61.61,0,0,0-.2-.45,2.8,2.8,0,0,0-1.15-.49,4.86,4.86,0,0,1-.88-.32,1.19,1.19,0,0,1-.33-.22" transform="translate(-17.97 -14.25)"/><polygon class="cls-4" points="106.31 98.47 106.95 98.47 106.95 104.48 110.16 104.48 110.16 105.14 106.31 105.14 106.31 98.47"/><polygon class="cls-4" points="111.08 98.47 111.72 98.47 111.72 104.48 114.93 104.48 114.93 105.14 111.08 105.14 111.08 98.47"/><path class="cls-4" d="M134.45,113.3v2.5h1.41a2.17,2.17,0,0,0,1.39-.35,1.11,1.11,0,0,0,.41-.91,1.08,1.08,0,0,0-.55-1,2.68,2.68,0,0,0-1.34-.26Zm-.63-.57H136a2.6,2.6,0,0,1,1.77.53,1.63,1.63,0,0,1,.61,1.25,1.76,1.76,0,0,1-.16.75,1.56,1.56,0,0,1-.49.57,2.44,2.44,0,0,1-.75.4,3.46,3.46,0,0,1-1.09.15h-1.45v3h-.64Z" transform="translate(-17.97 -14.25)"/></svg>