<?xml version="1.0" encoding="UTF-8" standalone="no"?>
<!DOCTYPE svg PUBLIC "-//W3C//DTD SVG 1.1//EN" "http://www.w3.org/Graphics/SVG/1.1/DTD/svg11.dtd">
<svg width="100%" height="100%" viewBox="0 0 1200 1060" version="1.1" xmlns="http://www.w3.org/2000/svg" xmlns:xlink="http://www.w3.org/1999/xlink" xml:space="preserve" xmlns:serif="http://www.serif.com/" style="fill-rule:evenodd;clip-rule:evenodd;stroke-linejoin:round;stroke-miterlimit:2;">
    <g transform="matrix(1.11597,0,0,1.11353,-114.223,-182.429)">
        <g>
            <g transform="matrix(1,0,0,1,-0.00135701,0)">
                <g transform="matrix(-9.04673,0,0,9.04684,7082.93,-2239.54)">
                    <rect x="652.753" y="265.658" width="118.86" height="90.09" style="fill:rgb(21,50,92);"/>
                </g>
                <g transform="matrix(9.04673,0,0,9.04684,222.786,477.468)">
                    <path d="M0,16.804C0.421,18.321 0.893,19.491 1.415,20.317C2.292,21.681 3.445,22.772 4.877,23.589C6.308,24.407 8.044,24.815 10.083,24.815C12.93,24.815 15.167,24.086 16.793,22.629C18.418,21.171 19.231,19.441 19.231,17.436C19.231,15.617 18.497,14.067 17.034,12.786C15.903,11.826 13.629,10.857 10.208,9.88C5.593,8.549 2.299,7.008 0.328,5.256C-1.643,3.52 -2.629,1.373 -2.629,-1.188C-2.629,-4.001 -1.529,-6.423 0.669,-8.453C2.868,-10.484 5.753,-11.498 9.325,-11.498C11.498,-11.498 13.545,-11.094 15.466,-10.286C17.386,-9.477 18.994,-8.273 20.291,-6.672C21.185,-5.56 21.892,-4.111 22.415,-2.325L18.548,-1.138C17.892,-3.412 16.758,-5.156 15.15,-6.369C13.541,-7.582 11.615,-8.188 9.376,-8.188C7,-8.188 5.088,-7.539 3.639,-6.244C2.19,-4.947 1.466,-3.415 1.466,-1.647C1.466,-0.199 2.056,1.114 3.235,2.292C4.399,3.471 6.961,4.632 10.92,5.774C15.621,7.12 18.864,8.677 20.648,10.447C22.417,12.234 23.3,14.485 23.3,17.2C23.3,20.268 22.094,22.886 19.686,25.053C17.276,27.22 14.076,28.302 10.083,28.302C7.59,28.302 5.308,27.809 3.235,26.824C1.162,25.838 -0.523,24.469 -1.82,22.717C-2.712,21.539 -3.436,19.921 -3.991,17.866L0,16.804Z" style="fill:rgb(254,254,254);fill-rule:nonzero;"/>
                </g>
                <g transform="matrix(9.04673,0,0,9.04684,484.55,726.66)">
                    <path d="M0,-38.31L6.265,-38.31L17.449,-7.456L28.566,-38.31L34.821,-38.31L34.821,0L31.157,0L31.157,-34.848L18.506,0L16.312,0L3.713,-34.848L3.713,0L0,0L0,-38.31Z" style="fill:rgb(254,254,254);fill-rule:nonzero;"/>
                </g>
                <g transform="matrix(9.04673,0,0,9.04684,870.537,726.66)">
                    <path d="M0,-38.31L22.566,-38.31L22.566,-34.671L3.714,-34.671L3.714,-22.163L17.739,-22.163L17.739,-18.473L3.714,-18.473L3.714,-3.689L24.386,-3.689L24.386,0L0,0L0,-38.31Z" style="fill:rgb(254,254,254);fill-rule:nonzero;"/>
                </g>
                <g transform="matrix(9.04673,0,0,9.04684,192.136,818.111)">
                    <path d="M0,6.925C0.124,7.097 0.277,7.252 0.457,7.389C0.637,7.529 0.846,7.642 1.087,7.731C1.327,7.818 1.595,7.861 1.892,7.861C2.196,7.861 2.471,7.809 2.715,7.702C2.96,7.595 3.169,7.452 3.339,7.273C3.509,7.093 3.641,6.88 3.734,6.635C3.825,6.39 3.872,6.13 3.872,5.851C3.872,5.427 3.764,5.09 3.547,4.842C3.328,4.592 3.058,4.383 2.735,4.217C2.413,4.051 2.064,3.9 1.689,3.76C1.317,3.621 0.968,3.447 0.644,3.241C0.321,3.032 0.049,2.767 -0.166,2.444C-0.383,2.12 -0.491,1.688 -0.491,1.141C-0.491,0.753 -0.422,0.401 -0.285,0.08C-0.147,-0.237 0.054,-0.513 0.318,-0.743C0.583,-0.974 0.897,-1.154 1.267,-1.283C1.637,-1.411 2.052,-1.477 2.515,-1.477C2.958,-1.477 3.341,-1.424 3.665,-1.317C3.987,-1.211 4.286,-1.047 4.565,-0.826C4.481,-0.668 4.414,-0.502 4.357,-0.327C4.302,-0.152 4.246,0.07 4.191,0.338L4.024,0.338C3.978,0.209 3.917,0.067 3.839,-0.084C3.759,-0.237 3.653,-0.378 3.518,-0.507C3.385,-0.635 3.225,-0.745 3.04,-0.832C2.856,-0.92 2.635,-0.965 2.375,-0.965C2.118,-0.965 1.878,-0.923 1.662,-0.841C1.445,-0.757 1.257,-0.638 1.093,-0.487C0.933,-0.334 0.807,-0.152 0.719,0.061C0.632,0.272 0.589,0.504 0.589,0.753C0.589,1.189 0.696,1.529 0.914,1.779C1.131,2.029 1.4,2.239 1.725,2.409C2.047,2.58 2.398,2.733 2.771,2.866C3.145,3.001 3.493,3.164 3.816,3.357C4.14,3.552 4.409,3.802 4.628,4.106C4.844,4.41 4.952,4.818 4.952,5.327C4.952,5.751 4.877,6.152 4.724,6.531C4.571,6.91 4.349,7.24 4.059,7.521C3.768,7.804 3.412,8.021 2.993,8.173C2.572,8.325 2.094,8.402 1.558,8.402C0.985,8.402 0.521,8.325 0.166,8.173C-0.189,8.021 -0.487,7.848 -0.728,7.653C-0.646,7.442 -0.586,7.25 -0.554,7.079C-0.523,6.907 -0.491,6.688 -0.464,6.42L-0.298,6.42C-0.225,6.587 -0.124,6.754 0,6.925" style="fill:rgb(198,227,191);fill-rule:nonzero;"/>
                </g>
                <g transform="matrix(9.04673,0,0,9.04684,276.361,868.231)">
                    <path d="M0,-4.155C0.255,-4.771 0.61,-5.29 1.066,-5.714C1.523,-6.14 2.071,-6.463 2.709,-6.685C3.346,-6.906 4.044,-7.017 4.802,-7.017C5.567,-7.017 6.271,-6.906 6.906,-6.685C7.544,-6.463 8.091,-6.14 8.548,-5.714C9.006,-5.29 9.362,-4.771 9.615,-4.155C9.87,-3.542 9.997,-2.842 9.997,-2.057C9.997,-1.272 9.87,-0.572 9.615,0.042C9.362,0.657 9.006,1.175 8.548,1.601C8.091,2.026 7.544,2.342 6.906,2.55C6.271,2.757 5.567,2.862 4.802,2.862C4.044,2.862 3.346,2.757 2.709,2.55C2.071,2.342 1.523,2.026 1.066,1.601C0.61,1.175 0.255,0.657 0,0.042C-0.253,-0.572 -0.38,-1.272 -0.38,-2.057C-0.38,-2.842 -0.253,-3.542 0,-4.155M8.347,-4.044C8.154,-4.604 7.884,-5.067 7.538,-5.431C7.191,-5.795 6.785,-6.066 6.317,-6.241C5.852,-6.417 5.345,-6.505 4.802,-6.505C4.266,-6.505 3.764,-6.417 3.298,-6.241C2.832,-6.066 2.425,-5.795 2.079,-5.431C1.733,-5.067 1.463,-4.604 1.269,-4.044C1.075,-3.486 0.978,-2.823 0.978,-2.057C0.978,-1.29 1.075,-0.628 1.269,-0.069C1.463,0.489 1.733,0.952 2.079,1.316C2.425,1.682 2.832,1.951 3.298,2.126C3.764,2.303 4.266,2.392 4.802,2.392C5.345,2.392 5.852,2.303 6.317,2.126C6.785,1.951 7.191,1.682 7.538,1.316C7.884,0.952 8.154,0.489 8.347,-0.069C8.542,-0.628 8.639,-1.29 8.639,-2.057C8.639,-2.823 8.542,-3.486 8.347,-4.044" style="fill:rgb(198,227,191);fill-rule:nonzero;"/>
                </g>
                <g transform="matrix(9.04673,0,0,9.04684,409.106,876.272)">
                    <path d="M0,-5.932C-0.022,-6.518 -0.049,-7.117 -0.078,-7.725C0.043,-7.707 0.16,-7.692 0.27,-7.678C0.38,-7.663 0.491,-7.657 0.602,-7.657C0.713,-7.657 0.824,-7.663 0.936,-7.678C1.045,-7.692 1.161,-7.707 1.281,-7.725C1.254,-7.117 1.228,-6.518 1.204,-5.932C1.182,-5.343 1.17,-4.747 1.17,-4.138C1.17,-2.974 1.174,-1.964 1.183,-1.111C1.192,-0.256 1.203,0.508 1.212,1.184C1.868,1.184 2.495,1.176 3.096,1.161C3.696,1.148 4.343,1.095 5.035,1.003C4.99,1.169 4.968,1.308 4.968,1.419C4.968,1.521 4.99,1.645 5.035,1.793C4.611,1.774 4.186,1.765 3.761,1.765L1.204,1.765C0.794,1.765 0.367,1.774 -0.078,1.793C-0.049,1.22 -0.022,0.639 0,0.048C0.022,-0.545 0.033,-1.145 0.033,-1.755L0.033,-4.138C0.033,-4.747 0.022,-5.343 0,-5.932" style="fill:rgb(198,227,191);fill-rule:nonzero;"/>
                </g>
                <g transform="matrix(9.04673,0,0,9.04684,496.84,876.272)">
                    <path d="M0,-5.932C-0.022,-6.518 -0.048,-7.117 -0.076,-7.725C0.045,-7.707 0.16,-7.692 0.271,-7.678C0.382,-7.663 0.493,-7.657 0.604,-7.657C0.714,-7.657 0.825,-7.663 0.936,-7.678C1.047,-7.692 1.162,-7.707 1.282,-7.725C1.255,-7.117 1.23,-6.518 1.206,-5.932C1.182,-5.343 1.171,-4.747 1.171,-4.138L1.171,-1.755C1.171,-1.145 1.182,-0.545 1.206,0.048C1.23,0.639 1.255,1.22 1.282,1.793C1.069,1.774 0.845,1.765 0.604,1.765C0.364,1.765 0.138,1.774 -0.076,1.793C-0.048,1.22 -0.022,0.639 0,0.048C0.024,-0.545 0.034,-1.145 0.034,-1.755L0.034,-4.138C0.034,-4.747 0.024,-5.343 0,-5.932" style="fill:rgb(198,227,191);fill-rule:nonzero;"/>
                </g>
                <g transform="matrix(9.04673,0,0,9.04684,618.297,809.332)">
                    <path d="M0,8.866C-0.18,8.954 -0.397,9.032 -0.65,9.103C-0.905,9.172 -1.189,9.233 -1.502,9.29C-1.817,9.344 -2.145,9.372 -2.486,9.372C-3.216,9.372 -3.891,9.267 -4.51,9.061C-5.128,8.853 -5.661,8.537 -6.109,8.111C-6.558,7.686 -6.909,7.168 -7.162,6.552C-7.417,5.938 -7.544,5.238 -7.544,4.454C-7.544,3.669 -7.417,2.968 -7.162,2.355C-6.909,1.74 -6.554,1.22 -6.096,0.796C-5.637,0.371 -5.091,0.047 -4.454,-0.174C-3.816,-0.396 -3.115,-0.506 -2.348,-0.506C-1.737,-0.506 -1.182,-0.444 -0.678,-0.32C-0.175,-0.195 0.27,-0.044 0.658,0.13C0.584,0.26 0.524,0.435 0.479,0.657C0.433,0.879 0.396,1.063 0.367,1.211L0.285,1.238C0.192,1.129 0.063,1.004 -0.103,0.865C-0.27,0.727 -0.463,0.593 -0.686,0.464C-0.908,0.335 -1.156,0.226 -1.433,0.139C-1.71,0.05 -2.016,0.005 -2.348,0.005C-2.894,0.005 -3.398,0.094 -3.866,0.269C-4.331,0.444 -4.739,0.715 -5.085,1.079C-5.431,1.443 -5.702,1.906 -5.895,2.466C-6.09,3.025 -6.186,3.687 -6.186,4.454C-6.186,5.221 -6.09,5.882 -5.895,6.441C-5.702,7 -5.431,7.463 -5.085,7.827C-4.739,8.192 -4.331,8.462 -3.866,8.637C-3.398,8.814 -2.894,8.902 -2.348,8.902C-2.016,8.902 -1.707,8.859 -1.427,8.776C-1.144,8.692 -0.887,8.595 -0.65,8.478C-0.415,8.363 -0.204,8.238 -0.013,8.104C0.175,7.97 0.336,7.854 0.464,7.752L0.52,7.807L0.396,8.623C0.313,8.698 0.18,8.779 0,8.866" style="fill:rgb(198,227,191);fill-rule:nonzero;"/>
                </g>
                <g transform="matrix(9.04673,0,0,9.04684,665.424,876.272)">
                    <path d="M0,-5.932C-0.023,-6.518 -0.048,-7.117 -0.075,-7.725C0.045,-7.707 0.16,-7.692 0.27,-7.678C0.382,-7.663 0.493,-7.657 0.604,-7.657C0.714,-7.657 0.825,-7.663 0.936,-7.678C1.045,-7.692 1.162,-7.707 1.282,-7.725C1.255,-7.117 1.228,-6.518 1.206,-5.932C1.183,-5.343 1.173,-4.747 1.173,-4.138L1.173,-1.755C1.173,-1.145 1.183,-0.545 1.206,0.048C1.228,0.639 1.255,1.22 1.282,1.793C1.069,1.774 0.843,1.765 0.604,1.765C0.362,1.765 0.138,1.774 -0.075,1.793C-0.048,1.22 -0.023,0.639 0,0.048C0.024,-0.545 0.036,-1.145 0.036,-1.755L0.036,-4.138C0.036,-4.747 0.024,-5.343 0,-5.932" style="fill:rgb(198,227,191);fill-rule:nonzero;"/>
                </g>
                <g transform="matrix(9.04673,0,0,9.04684,742.697,885.99)">
                    <path d="M0,-8.08C-0.238,-8.08 -0.491,-8.077 -0.755,-8.073C-1.018,-8.068 -1.281,-8.059 -1.544,-8.044C-1.808,-8.031 -2.061,-8.016 -2.307,-7.996C-2.551,-7.978 -2.771,-7.954 -2.964,-7.927C-2.918,-8.093 -2.895,-8.24 -2.895,-8.371C-2.895,-8.472 -2.918,-8.615 -2.964,-8.799C-2.354,-8.781 -1.758,-8.766 -1.177,-8.752C-0.595,-8.738 0,-8.732 0.61,-8.732C1.221,-8.732 1.815,-8.738 2.398,-8.752C2.979,-8.766 3.575,-8.781 4.186,-8.799C4.138,-8.615 4.116,-8.468 4.116,-8.357C4.116,-8.236 4.138,-8.093 4.186,-7.927C3.991,-7.954 3.771,-7.978 3.527,-7.996C3.281,-8.016 3.028,-8.031 2.765,-8.044C2.501,-8.059 2.238,-8.068 1.975,-8.073C1.712,-8.077 1.459,-8.08 1.221,-8.08C1.192,-7.129 1.179,-6.172 1.179,-5.212L1.179,-2.829C1.179,-2.219 1.189,-1.619 1.213,-1.026C1.236,-0.436 1.261,0.146 1.29,0.719C1.075,0.7 0.851,0.691 0.61,0.691C0.37,0.691 0.144,0.7 -0.069,0.719C-0.04,0.146 -0.015,-0.436 0.007,-1.026C0.03,-1.619 0.043,-2.219 0.043,-2.829L0.043,-5.212C0.043,-6.172 0.028,-7.129 0,-8.08" style="fill:rgb(198,227,191);fill-rule:nonzero;"/>
                </g>
                <g transform="matrix(9.04673,0,0,9.04684,812.206,868.231)">
                    <path d="M0,-4.155C0.253,-4.771 0.608,-5.29 1.066,-5.714C1.525,-6.14 2.071,-6.463 2.708,-6.685C3.346,-6.906 4.042,-7.017 4.8,-7.017C5.567,-7.017 6.27,-6.906 6.908,-6.685C7.544,-6.463 8.091,-6.14 8.549,-5.714C9.006,-5.29 9.361,-4.771 9.615,-4.155C9.869,-3.542 9.996,-2.842 9.996,-2.057C9.996,-1.272 9.869,-0.572 9.615,0.042C9.361,0.657 9.006,1.175 8.549,1.601C8.091,2.026 7.544,2.342 6.908,2.55C6.27,2.757 5.567,2.862 4.8,2.862C4.042,2.862 3.346,2.757 2.708,2.55C2.071,2.342 1.525,2.026 1.066,1.601C0.608,1.175 0.253,0.657 0,0.042C-0.255,-0.572 -0.382,-1.272 -0.382,-2.057C-0.382,-2.842 -0.255,-3.542 0,-4.155M8.348,-4.044C8.154,-4.604 7.884,-5.067 7.537,-5.431C7.191,-5.795 6.785,-6.066 6.319,-6.241C5.852,-6.417 5.345,-6.505 4.8,-6.505C4.264,-6.505 3.764,-6.417 3.297,-6.241C2.831,-6.066 2.423,-5.795 2.077,-5.431C1.731,-5.067 1.462,-4.604 1.267,-4.044C1.074,-3.486 0.977,-2.823 0.977,-2.057C0.977,-1.29 1.074,-0.628 1.267,-0.069C1.462,0.489 1.731,0.952 2.077,1.316C2.423,1.682 2.831,1.951 3.297,2.126C3.764,2.303 4.264,2.392 4.8,2.392C5.345,2.392 5.852,2.303 6.319,2.126C6.785,1.951 7.191,1.682 7.537,1.316C7.884,0.952 8.154,0.489 8.348,-0.069C8.542,-0.628 8.639,-1.29 8.639,-2.057C8.639,-2.823 8.542,-3.486 8.348,-4.044" style="fill:rgb(198,227,191);fill-rule:nonzero;"/>
                </g>
                <g transform="matrix(9.04673,0,0,9.04684,944.952,876.272)">
                    <path d="M0,-5.932C-0.024,-6.518 -0.049,-7.117 -0.076,-7.725C0.192,-7.707 0.455,-7.692 0.713,-7.678C0.972,-7.663 1.234,-7.657 1.504,-7.657C1.77,-7.657 2.034,-7.668 2.293,-7.692C2.551,-7.714 2.814,-7.725 3.082,-7.725C3.47,-7.725 3.839,-7.689 4.191,-7.615C4.543,-7.541 4.848,-7.419 5.112,-7.247C5.375,-7.076 5.583,-6.853 5.735,-6.576C5.888,-6.297 5.965,-5.953 5.965,-5.537C5.965,-5.093 5.865,-4.713 5.667,-4.394C5.468,-4.075 5.226,-3.811 4.94,-3.603C4.652,-3.396 4.346,-3.235 4.017,-3.118C3.689,-3.004 3.392,-2.926 3.123,-2.89C3.235,-2.752 3.388,-2.558 3.581,-2.309C3.776,-2.059 3.991,-1.783 4.233,-1.484C4.472,-1.184 4.722,-0.87 4.98,-0.542C5.239,-0.214 5.489,0.099 5.727,0.399C5.97,0.7 6.195,0.974 6.407,1.224C6.62,1.474 6.791,1.663 6.921,1.793C6.782,1.774 6.644,1.765 6.503,1.765L5.687,1.765C5.549,1.765 5.414,1.774 5.286,1.793C5.146,1.599 4.937,1.308 4.655,0.92C4.373,0.532 4.062,0.116 3.72,-0.326C3.379,-0.771 3.028,-1.211 2.673,-1.65C2.318,-2.089 1.992,-2.462 1.697,-2.766L1.171,-2.766L1.171,-1.755C1.171,-1.145 1.182,-0.545 1.204,0.048C1.228,0.639 1.254,1.22 1.281,1.793C1.069,1.774 0.842,1.765 0.602,1.765C0.362,1.765 0.135,1.774 -0.076,1.793C-0.049,1.22 -0.024,0.639 0,0.048C0.022,-0.545 0.034,-1.145 0.034,-1.755L0.034,-4.138C0.034,-4.747 0.022,-5.343 0,-5.932M1.592,-3.291C1.746,-3.282 1.914,-3.278 2.098,-3.278C2.384,-3.278 2.682,-3.31 2.992,-3.375C3.301,-3.44 3.586,-3.554 3.845,-3.715C4.102,-3.876 4.318,-4.093 4.489,-4.365C4.659,-4.638 4.745,-4.984 4.745,-5.399C4.745,-5.76 4.677,-6.056 4.544,-6.291C4.409,-6.528 4.237,-6.715 4.024,-6.853C3.812,-6.991 3.581,-7.087 3.332,-7.136C3.082,-7.187 2.837,-7.214 2.599,-7.214C2.274,-7.214 2.005,-7.207 1.794,-7.192C1.582,-7.178 1.4,-7.162 1.254,-7.144C1.234,-6.636 1.216,-6.133 1.198,-5.634C1.18,-5.134 1.171,-4.636 1.171,-4.138L1.171,-3.348C1.299,-3.318 1.441,-3.3 1.592,-3.291" style="fill:rgb(198,227,191);fill-rule:nonzero;"/>
                </g>
                <g transform="matrix(9.04673,0,0,9.04684,1046.86,818.111)">
                    <path d="M0,6.925C0.124,7.097 0.277,7.252 0.457,7.389C0.637,7.529 0.846,7.642 1.087,7.731C1.327,7.818 1.594,7.861 1.89,7.861C2.196,7.861 2.47,7.809 2.715,7.702C2.96,7.595 3.168,7.452 3.339,7.273C3.509,7.093 3.641,6.88 3.732,6.635C3.825,6.39 3.872,6.13 3.872,5.851C3.872,5.427 3.764,5.09 3.547,4.842C3.328,4.592 3.058,4.383 2.735,4.217C2.413,4.051 2.064,3.9 1.689,3.76C1.315,3.621 0.968,3.447 0.644,3.241C0.321,3.032 0.049,2.767 -0.168,2.444C-0.383,2.12 -0.491,1.688 -0.491,1.141C-0.491,0.753 -0.422,0.401 -0.285,0.08C-0.147,-0.237 0.054,-0.513 0.318,-0.743C0.581,-0.974 0.897,-1.154 1.267,-1.283C1.637,-1.411 2.052,-1.477 2.515,-1.477C2.958,-1.477 3.34,-1.424 3.665,-1.317C3.987,-1.211 4.286,-1.047 4.564,-0.826C4.481,-0.668 4.412,-0.502 4.357,-0.327C4.302,-0.152 4.246,0.07 4.189,0.338L4.024,0.338C3.978,0.209 3.915,0.067 3.837,-0.084C3.759,-0.237 3.653,-0.378 3.518,-0.507C3.385,-0.635 3.225,-0.745 3.04,-0.832C2.856,-0.92 2.633,-0.965 2.375,-0.965C2.118,-0.965 1.878,-0.923 1.662,-0.841C1.445,-0.757 1.257,-0.638 1.093,-0.487C0.932,-0.334 0.807,-0.152 0.719,0.061C0.631,0.272 0.589,0.504 0.589,0.753C0.589,1.189 0.697,1.529 0.914,1.779C1.131,2.029 1.4,2.239 1.725,2.409C2.047,2.58 2.396,2.733 2.771,2.866C3.144,3.001 3.493,3.164 3.816,3.357C4.14,3.552 4.409,3.802 4.627,4.106C4.844,4.41 4.952,4.818 4.952,5.327C4.952,5.751 4.877,6.152 4.724,6.531C4.571,6.91 4.349,7.24 4.059,7.521C3.768,7.804 3.412,8.021 2.993,8.173C2.572,8.325 2.094,8.402 1.558,8.402C0.986,8.402 0.521,8.325 0.166,8.173C-0.19,8.021 -0.487,7.848 -0.728,7.653C-0.646,7.442 -0.587,7.25 -0.556,7.079C-0.523,6.907 -0.491,6.688 -0.464,6.42L-0.298,6.42C-0.225,6.587 -0.126,6.754 0,6.925" style="fill:rgb(198,227,191);fill-rule:nonzero;"/>
                </g>
            </g>
            <g transform="matrix(0.986974,0,0,0.986974,8.33662,14.1314)">
                <g transform="matrix(9.04673,0,0,9.04684,101.544,1071.65)">
                    <path d="M0,2.921C0.073,3.185 0.156,3.388 0.246,3.532C0.398,3.769 0.599,3.959 0.849,4.101C1.098,4.244 1.399,4.314 1.754,4.314C2.25,4.314 2.637,4.188 2.921,3.935C3.202,3.68 3.344,3.379 3.344,3.032C3.344,2.714 3.216,2.446 2.961,2.223C2.766,2.055 2.371,1.888 1.775,1.717C0.974,1.486 0.4,1.217 0.058,0.913C-0.285,0.612 -0.458,0.239 -0.458,-0.208C-0.458,-0.697 -0.265,-1.118 0.117,-1.47C0.499,-1.824 1.002,-2 1.622,-2C1.999,-2 2.354,-1.93 2.688,-1.789C3.022,-1.649 3.304,-1.439 3.529,-1.16C3.684,-0.967 3.807,-0.717 3.899,-0.405L3.225,-0.199C3.111,-0.594 2.915,-0.897 2.635,-1.108C2.354,-1.319 2.022,-1.424 1.631,-1.424C1.218,-1.424 0.885,-1.312 0.632,-1.085C0.38,-0.861 0.255,-0.594 0.255,-0.287C0.255,-0.035 0.358,0.192 0.562,0.399C0.767,0.603 1.21,0.805 1.901,1.002C2.717,1.238 3.28,1.509 3.59,1.816C3.899,2.127 4.051,2.518 4.051,2.991C4.051,3.523 3.842,3.978 3.424,4.356C3.006,4.732 2.447,4.921 1.754,4.921C1.319,4.921 0.923,4.835 0.562,4.664C0.202,4.492 -0.09,4.254 -0.316,3.95C-0.472,3.745 -0.598,3.463 -0.695,3.105L0,2.921Z" style="fill:rgb(108,110,112);fill-rule:nonzero;"/>
                </g>
                <g transform="matrix(9.04673,0,0,9.04684,149.686,1116.02)">
                    <path d="M0,-6.562L0.634,-6.562L0.634,-4.84L1.806,-4.84L1.806,-4.255L0.634,-4.255L0.634,-1.32C0.634,-1.077 0.698,-0.887 0.827,-0.751C0.956,-0.614 1.129,-0.546 1.345,-0.546C1.463,-0.546 1.618,-0.57 1.806,-0.616L1.806,-0.041C1.588,-0.014 1.403,0 1.254,0C0.801,0 0.481,-0.095 0.289,-0.282C0.097,-0.471 0,-0.778 0,-1.206L0,-4.255L-0.825,-4.255L-0.825,-4.84L0,-4.84L0,-6.562Z" style="fill:rgb(108,110,112);fill-rule:nonzero;"/>
                </g>
                <g transform="matrix(9.04673,0,0,9.04684,172.449,1107.58)">
                    <path d="M0,-3.089C0.301,-3.403 0.629,-3.633 0.981,-3.781C1.331,-3.929 1.674,-4.003 2.011,-4.003C2.402,-4.003 2.735,-3.916 3.007,-3.743C3.28,-3.571 3.47,-3.357 3.577,-3.102C3.656,-2.905 3.696,-2.644 3.696,-2.316L3.696,-0.312C3.696,0.086 3.74,0.462 3.831,0.817L3.177,0.817C3.097,0.54 3.054,0.276 3.049,0.026C2.756,0.321 2.458,0.545 2.154,0.693C1.853,0.84 1.543,0.914 1.227,0.914C0.824,0.914 0.5,0.793 0.253,0.552C0.007,0.309 -0.115,0.005 -0.115,-0.362C-0.115,-0.66 -0.02,-0.94 0.171,-1.202C0.361,-1.462 0.657,-1.668 1.059,-1.817C1.351,-1.925 2.016,-2.093 3.049,-2.319L3.049,-2.613C3.049,-2.86 2.963,-3.068 2.787,-3.234C2.614,-3.4 2.393,-3.484 2.127,-3.484C1.886,-3.484 1.635,-3.426 1.376,-3.306C1.117,-3.189 0.815,-2.983 0.47,-2.689L0,-3.089ZM3.049,-0.344L3.049,-1.847C2.336,-1.678 1.868,-1.552 1.643,-1.474C1.282,-1.352 1.018,-1.191 0.851,-0.997C0.681,-0.802 0.598,-0.594 0.598,-0.375C0.598,-0.167 0.669,0.007 0.815,0.142C0.96,0.279 1.153,0.347 1.396,0.347C1.63,0.347 1.883,0.288 2.158,0.173C2.432,0.058 2.729,-0.114 3.049,-0.344" style="fill:rgb(108,110,112);fill-rule:nonzero;"/>
                </g>
                <g transform="matrix(9.04673,0,0,9.04684,-5802.93,-1212.56)">
                    <rect x="665.509" y="250.613" width="0.643" height="6.662" style="fill:rgb(108,110,112);"/>
                </g>
                <g transform="matrix(9.04673,0,0,9.04684,-5802.93,-1212.56)">
                    <rect x="667.553" y="250.613" width="0.643" height="6.662" style="fill:rgb(108,110,112);"/>
                </g>
                <g transform="matrix(9.04673,0,0,9.04684,252.473,1107.58)">
                    <path d="M0,-3.089C0.301,-3.403 0.628,-3.633 0.979,-3.781C1.33,-3.929 1.676,-4.003 2.013,-4.003C2.401,-4.003 2.733,-3.916 3.007,-3.743C3.281,-3.571 3.472,-3.357 3.577,-3.102C3.656,-2.905 3.695,-2.644 3.695,-2.316L3.695,-0.312C3.695,0.086 3.741,0.462 3.831,0.817L3.175,0.817C3.097,0.54 3.055,0.276 3.049,0.026C2.756,0.321 2.458,0.545 2.155,0.693C1.851,0.84 1.541,0.914 1.225,0.914C0.825,0.914 0.5,0.793 0.255,0.552C0.009,0.309 -0.114,0.005 -0.114,-0.362C-0.114,-0.66 -0.02,-0.94 0.171,-1.202C0.359,-1.462 0.657,-1.668 1.059,-1.817C1.351,-1.925 2.014,-2.093 3.049,-2.319L3.049,-2.613C3.049,-2.86 2.963,-3.068 2.787,-3.234C2.614,-3.4 2.392,-3.484 2.127,-3.484C1.886,-3.484 1.637,-3.426 1.376,-3.306C1.119,-3.189 0.816,-2.983 0.469,-2.689L0,-3.089ZM3.049,-0.344L3.049,-1.847C2.338,-1.678 1.869,-1.552 1.643,-1.474C1.284,-1.352 1.018,-1.191 0.849,-0.997C0.683,-0.802 0.598,-0.594 0.598,-0.375C0.598,-0.167 0.669,0.007 0.815,0.142C0.96,0.279 1.153,0.347 1.397,0.347C1.628,0.347 1.881,0.288 2.157,0.173C2.432,0.058 2.73,-0.114 3.049,-0.344" style="fill:rgb(108,110,112);fill-rule:nonzero;"/>
                </g>
                <g transform="matrix(9.04673,0,0,9.04684,303.135,1104.41)">
                    <path d="M0,-2.488C0.264,-2.892 0.539,-3.187 0.828,-3.376C1.116,-3.563 1.444,-3.656 1.814,-3.656C1.854,-3.656 1.914,-3.655 1.99,-3.652L1.899,-2.945L1.664,-2.958C1.493,-2.967 1.305,-2.927 1.093,-2.838C0.882,-2.749 0.693,-2.606 0.529,-2.413C0.364,-2.22 0.234,-1.98 0.141,-1.693C0.047,-1.405 0,-1.152 0,-0.932L0,1.168L-0.641,1.168L-0.641,-3.556L0,-3.556L0,-2.488Z" style="fill:rgb(108,110,112);fill-rule:nonzero;"/>
                </g>
                <g transform="matrix(9.04673,0,0,9.04684,356.114,1115.85)">
                    <path d="M0,-6.759L0.638,-6.759L0.638,-1.569C0.638,-1.3 0.656,-1.021 0.69,-0.732C0.726,-0.443 0.765,-0.232 0.809,-0.097L0.15,-0.097C0.079,-0.34 0.045,-0.558 0.04,-0.752C-0.244,-0.503 -0.524,-0.314 -0.801,-0.19C-1.077,-0.064 -1.351,0 -1.621,0C-2.152,0 -2.612,-0.217 -2.992,-0.648C-3.376,-1.081 -3.568,-1.679 -3.568,-2.443C-3.568,-3.226 -3.374,-3.834 -2.99,-4.267C-2.605,-4.7 -2.145,-4.917 -1.612,-4.917C-1.339,-4.917 -1.074,-4.858 -0.816,-4.745C-0.559,-4.628 -0.286,-4.443 0,-4.192L0,-6.759ZM0,-3.639C-0.264,-3.873 -0.521,-4.048 -0.776,-4.165C-1.032,-4.279 -1.284,-4.337 -1.529,-4.337C-1.929,-4.337 -2.263,-4.181 -2.531,-3.868C-2.796,-3.558 -2.93,-3.096 -2.93,-2.483C-2.93,-1.842 -2.795,-1.361 -2.522,-1.044C-2.25,-0.726 -1.916,-0.567 -1.523,-0.567C-1.284,-0.567 -1.036,-0.626 -0.782,-0.746C-0.527,-0.864 -0.265,-1.042 0,-1.279L0,-3.639Z" style="fill:rgb(108,110,112);fill-rule:nonzero;"/>
                </g>
                <g transform="matrix(9.04673,0,0,9.04684,397.548,1114.97)">
                    <path d="M0,-6.662L1.09,-6.662L3.034,-1.296L4.968,-6.662L6.055,-6.662L6.055,0L5.42,0L5.42,-6.06L3.219,0L2.837,0L0.647,-6.06L0.647,0L0,0L0,-6.662Z" style="fill:rgb(108,110,112);fill-rule:nonzero;"/>
                </g>
                <g transform="matrix(9.04673,0,0,9.04684,463.087,1107.58)">
                    <path d="M0,-3.089C0.301,-3.403 0.628,-3.633 0.979,-3.781C1.33,-3.929 1.674,-4.003 2.013,-4.003C2.402,-4.003 2.733,-3.916 3.007,-3.743C3.281,-3.571 3.47,-3.357 3.577,-3.102C3.656,-2.905 3.695,-2.644 3.695,-2.316L3.695,-0.312C3.695,0.086 3.74,0.462 3.831,0.817L3.177,0.817C3.097,0.54 3.055,0.276 3.049,0.026C2.756,0.321 2.458,0.545 2.155,0.693C1.853,0.84 1.541,0.914 1.225,0.914C0.824,0.914 0.5,0.793 0.255,0.552C0.009,0.309 -0.114,0.005 -0.114,-0.362C-0.114,-0.66 -0.019,-0.94 0.171,-1.202C0.361,-1.462 0.657,-1.668 1.057,-1.817C1.351,-1.925 2.016,-2.093 3.049,-2.319L3.049,-2.613C3.049,-2.86 2.961,-3.068 2.787,-3.234C2.614,-3.4 2.393,-3.484 2.127,-3.484C1.886,-3.484 1.635,-3.426 1.378,-3.306C1.117,-3.189 0.815,-2.983 0.469,-2.689L0,-3.089ZM3.049,-0.344L3.049,-1.847C2.338,-1.678 1.868,-1.552 1.643,-1.474C1.282,-1.352 1.017,-1.191 0.851,-0.997C0.682,-0.802 0.598,-0.594 0.598,-0.375C0.598,-0.167 0.669,0.007 0.815,0.142C0.96,0.279 1.155,0.347 1.397,0.347C1.628,0.347 1.883,0.288 2.157,0.173C2.432,0.058 2.729,-0.114 3.049,-0.344" style="fill:rgb(108,110,112);fill-rule:nonzero;"/>
                </g>
                <g transform="matrix(9.04673,0,0,9.04684,513.749,1104.41)">
                    <path d="M0,-2.488C0.264,-2.892 0.539,-3.187 0.827,-3.376C1.116,-3.563 1.445,-3.656 1.814,-3.656C1.856,-3.656 1.914,-3.655 1.989,-3.652L1.898,-2.945L1.664,-2.958C1.495,-2.967 1.305,-2.927 1.093,-2.838C0.882,-2.749 0.693,-2.606 0.529,-2.413C0.364,-2.22 0.234,-1.98 0.141,-1.693C0.047,-1.405 0,-1.152 0,-0.932L0,1.168L-0.641,1.168L-0.641,-3.556L0,-3.556L0,-2.488Z" style="fill:rgb(108,110,112);fill-rule:nonzero;"/>
                </g>
                <g transform="matrix(9.04673,0,0,9.04684,569.723,1082.64)">
                    <path d="M0,2.427C-0.213,2.812 -0.449,3.098 -0.704,3.288C-1.042,3.544 -1.424,3.672 -1.85,3.672C-2.218,3.672 -2.566,3.571 -2.888,3.372C-3.214,3.174 -3.464,2.884 -3.641,2.506C-3.818,2.129 -3.906,1.696 -3.906,1.206C-3.906,0.453 -3.705,-0.143 -3.302,-0.583C-2.898,-1.025 -2.414,-1.245 -1.847,-1.245C-1.462,-1.245 -1.113,-1.145 -0.8,-0.943C-0.485,-0.741 -0.22,-0.438 0,-0.034L-0.559,0.27C-0.737,-0.061 -0.93,-0.308 -1.138,-0.47C-1.345,-0.633 -1.585,-0.714 -1.854,-0.714C-2.238,-0.714 -2.57,-0.55 -2.85,-0.222C-3.129,0.107 -3.27,0.595 -3.27,1.245C-3.27,1.82 -3.127,2.274 -2.844,2.608C-2.564,2.942 -2.238,3.108 -1.872,3.108C-1.319,3.108 -0.879,2.779 -0.559,2.12L0,2.427Z" style="fill:rgb(108,110,112);fill-rule:nonzero;"/>
                </g>
                <g transform="matrix(9.04673,0,0,9.04684,577.772,1114.97)">
                    <path d="M0,-6.662L0.641,-6.662L0.641,-4.201C1.182,-4.474 1.568,-4.644 1.797,-4.715C2.028,-4.785 2.25,-4.82 2.462,-4.82C2.844,-4.82 3.156,-4.688 3.397,-4.424C3.639,-4.161 3.761,-3.768 3.761,-3.247L3.761,0L3.12,0L3.12,-3.392C3.12,-3.665 3.048,-3.872 2.904,-4.014C2.763,-4.156 2.563,-4.227 2.305,-4.227C2.077,-4.227 1.824,-4.18 1.547,-4.084C1.27,-3.989 0.968,-3.846 0.641,-3.656L0.641,0L0,0L0,-6.662Z" style="fill:rgb(108,110,112);fill-rule:nonzero;"/>
                </g>
                <g transform="matrix(9.04673,0,0,9.04684,655.803,1089.45)">
                    <path d="M0,-1.015C-0.172,-1.3 -0.289,-1.527 -0.346,-1.701C-0.428,-1.944 -0.469,-2.183 -0.469,-2.417C-0.469,-2.88 -0.333,-3.254 -0.054,-3.54C0.222,-3.825 0.578,-3.968 1.016,-3.968C1.441,-3.968 1.781,-3.844 2.04,-3.594C2.298,-3.345 2.426,-3.026 2.426,-2.637C2.426,-2.46 2.395,-2.291 2.33,-2.128C2.268,-1.962 2.164,-1.795 2.021,-1.626C1.874,-1.455 1.715,-1.301 1.541,-1.163L0.979,-0.777C0.998,-0.754 1.051,-0.676 1.143,-0.549C1.523,0.002 2.002,0.585 2.582,1.2C2.751,0.975 2.894,0.706 3.015,0.393C3.135,0.081 3.214,-0.214 3.249,-0.488L3.96,-0.488C3.909,-0.184 3.837,0.114 3.744,0.406C3.651,0.697 3.538,0.974 3.41,1.235C3.37,1.32 3.271,1.473 3.117,1.696C3.491,2.018 3.872,2.19 4.263,2.21L4.263,2.927C3.985,2.909 3.725,2.849 3.485,2.746C3.246,2.644 2.969,2.47 2.658,2.223C2.453,2.43 2.188,2.601 1.863,2.741C1.538,2.882 1.15,2.953 0.699,2.953C-0.082,2.953 -0.686,2.713 -1.111,2.237C-1.427,1.882 -1.585,1.476 -1.585,1.019C-1.585,0.628 -1.462,0.267 -1.213,-0.059C-0.963,-0.386 -0.559,-0.705 0,-1.015M0.379,-0.417C-0.003,-0.178 -0.255,-0.009 -0.377,0.087C-0.541,0.219 -0.667,0.367 -0.755,0.529C-0.843,0.692 -0.887,0.865 -0.887,1.046C-0.887,1.362 -0.734,1.653 -0.43,1.916C-0.127,2.18 0.262,2.312 0.734,2.312C0.974,2.312 1.2,2.271 1.406,2.189C1.613,2.105 1.856,1.958 2.133,1.744C1.57,1.184 0.984,0.463 0.379,-0.417M0.604,-1.376C0.638,-1.401 0.705,-1.446 0.806,-1.512C1.162,-1.755 1.403,-1.971 1.529,-2.161C1.655,-2.348 1.719,-2.532 1.719,-2.712C1.719,-2.878 1.651,-3.028 1.513,-3.16C1.379,-3.291 1.221,-3.357 1.042,-3.357C0.828,-3.357 0.637,-3.266 0.467,-3.085C0.301,-2.904 0.217,-2.676 0.217,-2.403C0.217,-2.27 0.241,-2.131 0.292,-1.988C0.344,-1.846 0.446,-1.643 0.604,-1.376" style="fill:rgb(108,110,112);fill-rule:nonzero;"/>
                </g>
                <g transform="matrix(9.04673,0,0,9.04684,725.177,1114.97)">
                    <path d="M0,-6.662L3.926,-6.662L3.926,-6.028L0.647,-6.028L0.647,-3.854L3.085,-3.854L3.085,-3.213L0.647,-3.213L0.647,-0.641L4.242,-0.641L4.242,0L0,0L0,-6.662Z" style="fill:rgb(108,110,112);fill-rule:nonzero;"/>
                </g>
                <g transform="matrix(9.04673,0,0,9.04684,800.445,1115.85)">
                    <path d="M0,-6.759L0.637,-6.759L0.637,-1.569C0.637,-1.3 0.653,-1.021 0.689,-0.732C0.724,-0.443 0.764,-0.232 0.809,-0.097L0.15,-0.097C0.079,-0.34 0.042,-0.558 0.039,-0.752C-0.244,-0.503 -0.526,-0.314 -0.801,-0.19C-1.08,-0.064 -1.352,0 -1.624,0C-2.155,0 -2.612,-0.217 -2.995,-0.648C-3.377,-1.081 -3.569,-1.679 -3.569,-2.443C-3.569,-3.226 -3.377,-3.834 -2.989,-4.267C-2.606,-4.7 -2.146,-4.917 -1.615,-4.917C-1.342,-4.917 -1.075,-4.858 -0.818,-4.745C-0.56,-4.628 -0.286,-4.443 0,-4.192L0,-6.759ZM0,-3.639C-0.264,-3.873 -0.524,-4.048 -0.779,-4.165C-1.033,-4.279 -1.283,-4.337 -1.529,-4.337C-1.931,-4.337 -2.265,-4.181 -2.531,-3.868C-2.798,-3.558 -2.932,-3.096 -2.932,-2.483C-2.932,-1.842 -2.795,-1.361 -2.524,-1.044C-2.25,-0.726 -1.917,-0.567 -1.526,-0.567C-1.285,-0.567 -1.036,-0.626 -0.783,-0.746C-0.527,-0.864 -0.268,-1.042 0,-1.279L0,-3.639Z" style="fill:rgb(108,110,112);fill-rule:nonzero;"/>
                </g>
                <g transform="matrix(9.04673,0,0,9.04684,813.236,1114.97)">
                    <path d="M0,-4.724L0.619,-4.724L1.706,-1.284L2.799,-4.724L3.295,-4.724L4.405,-1.195L5.506,-4.724L6.126,-4.724L4.62,0L4.167,0L3.045,-3.581L1.92,0L1.49,0L0,-4.724Z" style="fill:rgb(108,110,112);fill-rule:nonzero;"/>
                </g>
                <g transform="matrix(9.04673,0,0,9.04684,873.505,1107.58)">
                    <path d="M0,-3.089C0.303,-3.403 0.631,-3.633 0.981,-3.781C1.333,-3.929 1.676,-4.003 2.013,-4.003C2.402,-4.003 2.736,-3.916 3.007,-3.743C3.282,-3.571 3.472,-3.357 3.578,-3.102C3.657,-2.905 3.698,-2.644 3.698,-2.316L3.698,-0.312C3.698,0.086 3.741,0.462 3.833,0.817L3.178,0.817C3.099,0.54 3.055,0.276 3.049,0.026C2.757,0.321 2.459,0.545 2.155,0.693C1.853,0.84 1.544,0.914 1.227,0.914C0.825,0.914 0.502,0.793 0.255,0.552C0.009,0.309 -0.114,0.005 -0.114,-0.362C-0.114,-0.66 -0.019,-0.94 0.172,-1.202C0.362,-1.462 0.657,-1.668 1.06,-1.817C1.353,-1.925 2.016,-2.093 3.049,-2.319L3.049,-2.613C3.049,-2.86 2.964,-3.068 2.789,-3.234C2.615,-3.4 2.395,-3.484 2.127,-3.484C1.886,-3.484 1.637,-3.426 1.378,-3.306C1.119,-3.189 0.816,-2.983 0.472,-2.689L0,-3.089ZM3.049,-0.344L3.049,-1.847C2.338,-1.678 1.869,-1.552 1.645,-1.474C1.284,-1.352 1.02,-1.191 0.851,-0.997C0.683,-0.802 0.598,-0.594 0.598,-0.375C0.598,-0.167 0.671,0.007 0.816,0.142C0.96,0.279 1.155,0.347 1.397,0.347C1.63,0.347 1.883,0.288 2.158,0.173C2.432,0.058 2.73,-0.114 3.049,-0.344" style="fill:rgb(108,110,112);fill-rule:nonzero;"/>
                </g>
                <g transform="matrix(9.04673,0,0,9.04684,924.167,1104.41)">
                    <path d="M0,-2.488C0.264,-2.892 0.539,-3.187 0.83,-3.376C1.119,-3.563 1.447,-3.656 1.817,-3.656C1.857,-3.656 1.917,-3.655 1.992,-3.652L1.899,-2.945L1.667,-2.958C1.496,-2.967 1.306,-2.927 1.095,-2.838C0.885,-2.749 0.696,-2.606 0.53,-2.413C0.364,-2.22 0.235,-1.98 0.141,-1.693C0.048,-1.405 0,-1.152 0,-0.932L0,1.168L-0.641,1.168L-0.641,-3.556L0,-3.556L0,-2.488Z" style="fill:rgb(108,110,112);fill-rule:nonzero;"/>
                </g>
                <g transform="matrix(9.04673,0,0,9.04684,977.173,1115.85)">
                    <path d="M0,-6.759L0.635,-6.759L0.635,-1.569C0.635,-1.3 0.653,-1.021 0.689,-0.732C0.723,-0.443 0.764,-0.232 0.809,-0.097L0.148,-0.097C0.079,-0.34 0.042,-0.558 0.039,-0.752C-0.244,-0.503 -0.527,-0.314 -0.801,-0.19C-1.08,-0.064 -1.353,0 -1.622,0C-2.155,0 -2.612,-0.217 -2.995,-0.648C-3.377,-1.081 -3.569,-1.679 -3.569,-2.443C-3.569,-3.226 -3.377,-3.834 -2.99,-4.267C-2.605,-4.7 -2.146,-4.917 -1.615,-4.917C-1.342,-4.917 -1.075,-4.858 -0.818,-4.745C-0.56,-4.628 -0.288,-4.443 0,-4.192L0,-6.759ZM0,-3.639C-0.264,-3.873 -0.524,-4.048 -0.779,-4.165C-1.033,-4.279 -1.284,-4.337 -1.531,-4.337C-1.931,-4.337 -2.265,-4.181 -2.533,-3.868C-2.799,-3.558 -2.933,-3.096 -2.933,-2.483C-2.933,-1.842 -2.795,-1.361 -2.522,-1.044C-2.251,-0.726 -1.919,-0.567 -1.526,-0.567C-1.285,-0.567 -1.038,-0.626 -0.782,-0.746C-0.529,-0.864 -0.268,-1.042 0,-1.279L0,-3.639Z" style="fill:rgb(108,110,112);fill-rule:nonzero;"/>
                </g>
                <g transform="matrix(9.04673,0,0,9.04684,995.505,1097.02)">
                    <path d="M0,-0.753C-0.231,-0.996 -0.346,-1.267 -0.346,-1.566C-0.346,-1.912 -0.204,-2.209 0.079,-2.46C0.364,-2.709 0.759,-2.835 1.266,-2.835C1.603,-2.835 1.922,-2.773 2.221,-2.652C2.522,-2.529 2.777,-2.348 2.988,-2.108L2.503,-1.697C2.322,-1.905 2.133,-2.059 1.941,-2.156C1.746,-2.254 1.525,-2.303 1.276,-2.303C0.956,-2.303 0.713,-2.236 0.548,-2.098C0.38,-1.959 0.298,-1.798 0.298,-1.619C0.298,-1.463 0.364,-1.324 0.491,-1.201C0.619,-1.078 0.914,-0.955 1.379,-0.834C2.097,-0.65 2.579,-0.425 2.829,-0.161C3.079,0.102 3.204,0.393 3.204,0.709C3.204,1.085 3.054,1.408 2.757,1.678C2.461,1.947 2.056,2.082 1.543,2.082C1.168,2.082 0.822,2.012 0.506,1.871C0.189,1.729 -0.144,1.495 -0.496,1.166L0.057,0.781C0.318,1.044 0.565,1.233 0.798,1.345C1.027,1.459 1.272,1.515 1.531,1.515C1.857,1.515 2.112,1.437 2.292,1.279C2.473,1.124 2.563,0.939 2.563,0.728C2.563,0.553 2.495,0.402 2.359,0.276C2.17,0.098 1.787,-0.067 1.212,-0.217C0.86,-0.31 0.563,-0.415 0.329,-0.528C0.213,-0.585 0.103,-0.659 0,-0.753" style="fill:rgb(108,110,112);fill-rule:nonzero;"/>
                </g>
                <g transform="matrix(9.04673,0,0,9.04684,1056.98,1114.97)">
                    <path d="M0,-6.662L0.641,-6.662L0.641,-0.655L3.849,-0.655L3.849,0L0,0L0,-6.662Z" style="fill:rgb(108,110,112);fill-rule:nonzero;"/>
                </g>
                <g transform="matrix(9.04673,0,0,9.04684,1100.15,1114.97)">
                    <path d="M0,-6.662L0.641,-6.662L0.641,-0.655L3.849,-0.655L3.849,0L0,0L0,-6.662Z" style="fill:rgb(108,110,112);fill-rule:nonzero;"/>
                </g>
                <g transform="matrix(9.04673,0,0,9.04684,1143.29,1114.97)">
                    <path d="M0,-6.662L2.206,-6.662C2.979,-6.662 3.568,-6.484 3.974,-6.13C4.379,-5.775 4.582,-5.356 4.582,-4.874C4.582,-4.592 4.528,-4.344 4.42,-4.129C4.312,-3.912 4.152,-3.722 3.939,-3.556C3.725,-3.388 3.473,-3.255 3.181,-3.157C2.888,-3.06 2.524,-3.011 2.091,-3.011L0.641,-3.011L0.641,0L0,0L0,-6.662ZM0.632,-6.085L0.632,-3.59L2.041,-3.59C2.696,-3.59 3.16,-3.705 3.436,-3.938C3.71,-4.17 3.849,-4.471 3.849,-4.847C3.849,-5.275 3.663,-5.602 3.299,-5.826C3.018,-5.998 2.567,-6.085 1.95,-6.085L0.632,-6.085Z" style="fill:rgb(108,110,112);fill-rule:nonzero;"/>
                </g>
            </g>
        </g>
    </g>
</svg>
